In zijn hilarische voorstelling "Wortels" neemt Klaas van der Eerden het publiek mee naar zijn roots. Opgegroeid in de jaren zeventig in een boerengehuchtje boven Amsterdam in een hippiegezin; laat het maar aan Klaas over om daar met zijn grappige verhalen, typetjes en improvisaties compleet op los te gaan.

"Wortels zit boordevol originele vondsten met een hoge grapdichtheid" schreef het AD dan ook. En De Volkskrant had genoten van de "smakelijke verhalen" en noemde Wortel "een vermakelijk en zinnig programma".

En dan hebben we het nog niet eens gehad over de zeer komische, muzikale hoogstandjes waarmee Klaas zijn publiek steeds weer verbaast. Conclusie: een energieke volbloed entertainer die zich iedere avond voor de volle 100% geeft en daarmee iedere zaal uit z'n dak laat gaan! 

General
Format                           : AVI
Format/Info                      : Audio Video Interleave
File size                        : 720 MiB
Duration                         : 1h 24mn
Overall bit rate                 : 1 192 Kbps

Video
ID                               : 0
Format                           : MPEG-4 Visual
Format profile                   : Simple@L3
Format settings, BVOP            : No
Format settings, QPel            : No
Format settings, GMC             : No warppoints
Format settings, Matrix          : Default (H.263)
Codec ID                         : XVID
Codec ID/Hint                    : XviD
Duration                         : 1h 24mn
Bit rate                         : 994 Kbps
Width                            : 672 pixels
Height                           : 368 pixels
Display aspect ratio             : 16:9
Frame rate                       : 30.000 fps
Color space                      : YUV
Chroma subsampling               : 4:2:0
Bit depth                        : 8 bits
Scan type                        : Progressive
Bits/(Pixel*Frame)               : 0.134
Stream size                      : 600 MiB (83%)
Writing library                  : XviD 1.1.2 (UTC 2006-11-01)

Audio
ID                               : 1
Format                           : AC-3
Format/Info                      : Audio Coding 3
Mode extension                   : CM (complete main)
Codec ID                         : 2000
Duration                         : 1h 24mn
Bit rate mode                    : Constant
Bit rate                         : 192 Kbps
Channel(s)                       : 2 channels
Channel positions                : Front: L R
Sampling rate                    : 48.0 KHz
Bit depth                        : 16 bits
Stream size                      : 116 MiB (16%)
Alignment                        : Split accross interleaves
Interleave, duration             : 500 ms (15.00 video frames)
Interleave, preload duration     : 500 ms

Leave your comment about Audio/Video/Movie.